<svg xmlns="http://www.w3.org/2000/svg" viewBox="0 0 56 56" fill="none">
  <defs>
    <mask id="favicon-mask">
      <rect width="56" height="56" fill="white" />
      <path
        d="M28 20C28 16.6863 30.6863 14 34 14C35.6569 14 37.1569 14.6716 38.2426 15.7574C39.3284 14.6716 40.8284 14 42.4853 14C45.799 14 48.4853 16.6863 48.4853 20C48.4853 21.3062 48.0615 22.512 47.3431 23.4853L38.2426 32.5858L29.1421 23.4853C28.4237 22.512 28 21.3062 28 20Z"
        fill="black"
      />
    </mask>
    <linearGradient
      id="favicon-gradient"
      x1="0"
      y1="28"
      x2="56"
      y2="28"
      gradientUnits="userSpaceOnUse"
    >
      <stop offset="0%" stop-color="#EC4899" />
      <stop offset="100%" stop-color="#F43F5E" />
    </linearGradient>
  </defs>
  <path
    d="M48 16C48 11.5817 44.4183 8 40 8H16C11.5817 8 8 11.5817 8 16V36C8 40.4183 11.5817 44 16 44H20V52L28 44H40C44.4183 44 48 40.4183 48 36V16Z"
    fill="url(#favicon-gradient)"
    mask="url(#favicon-mask)"
  />
</svg>
